<svg width="1622" height="626" xmlns="http://www.w3.org/2000/svg">
 <g>
  <title>background</title>
  <rect x="-1" y="-1" width="2055.165008" height="794.405237" id="canvas_background" fill="none"/>
 </g>

 <g>
  <title>Layer 1</title>
  <polygon opacity="0.2" fill="#FFFFFF" points="1308,30.31 1338,39.98 1317.33,61.31 " id="svg_1"/>
  <circle opacity="0.2" fill="none" stroke="#FFFFFF" stroke-width="3" stroke-miterlimit="10" cx="1480" cy="120" r="6.92" id="svg_3"/>
  <polygon opacity="0.2" fill="#FFFFFF" points="412.18,369.77 429.68,379.33 412.18,389.86 " id="svg_5"/>
  <circle opacity="0.2" fill="#FFFFFF" cx="285.58" cy="18.48" r="9.83" id="svg_6"/>
  <g id="svg_39" fill-opacity="0.36" transform="rotate(32.67084884643555 196.5262451171875,299.84210205078125) ">
   <g id="svg_14" transform="matrix(0.11044706410800487,0,0,0.11044706410800487,0,0) ">
    <g id="svg_15">
     <path d="m2017.79631,2512.30475c-0.015,-1.181 -0.188,-2.257 -0.441,-3.271c0.086,-6.568 -4.093,-13.197 -12.558,-13.197l-32.932,0c-0.635,0 -1.203,0.104 -1.787,0.178c-3.595,-0.693 -7.5,0.186 -10.872,3.628c-7.586,7.749 -14.035,16.517 -19.854,25.657l-17.026,0c-4.713,-6.282 -8.79,-13.041 -12.832,-19.763c-1.193,-5.228 -5.216,-9.704 -12.157,-9.704l-214.93,0c-0.713,0 -1.346,0.109 -1.996,0.198c-3.969,-0.569 -8.14,0.412 -10.661,3.608c-6.391,8.112 -11.7,16.433 -15.803,25.656l-22.349,0c-3.405,-7.19 -6.729,-14.424 -10.768,-21.294c-0.35,-0.587 -0.749,-1.059 -1.14,-1.564c-1.544,-4.623 -5.482,-8.34 -11.829,-8.34c-14.731,0 -38.057,-4.862 -51.755,-0.5c-24.773,7.887 -12.276,44.118 -11.461,62.412c1.244,27.83 0.229,55.937 0.381,83.797c0.343,63.375 0.987,126.756 1.815,190.125c0.373,28.752 0.706,57.493 1.231,86.229c0.073,4.094 1.696,7.171 4.083,9.263c0.883,5.637 5.007,10.669 12.385,10.669c12.74,-0.005 25.479,-0.066 38.13,-1.731c0.988,-0.127 1.94,-0.341 2.869,-0.604c5.403,0.229 10.958,-2.407 13.131,-8.938c2.567,-7.713 4.867,-15.447 6.203,-23.389l25.215,0c2.208,5.199 3.587,10.639 3.712,16.468c0.045,2.128 0.515,3.981 1.279,5.565c1.564,4.712 5.474,8.688 11.72,9.166c62.885,4.844 157.087,5.194 220.125,5.199c1.233,0 2.351,-0.178 3.401,-0.441c5.332,0.193 10.694,-2.493 12.604,-9.104c2.433,-8.435 5.109,-16.783 7.846,-25.121l18.524,0c3.407,6.489 6.81,12.989 9.222,19.921c0.32,0.919 0.736,1.787 1.204,2.61c1.726,4.392 5.483,8.063 11.329,8.663c15.568,1.604 31.168,1.731 46.798,1.731c1.27,0 2.407,-0.188 3.483,-0.462c6.617,0.162 13.233,-3.997 12.984,-12.538c-3.028,-104.029 4.878,-306.744 3.477,-410.782zm-29.691,397.705c-9.095,-0.082 -18.185,-0.249 -27.254,-0.854c-3.661,-8.739 -8.15,-17.077 -12.431,-25.553c-2.387,-4.728 -7.892,-6.896 -12.949,-6.266c-0.573,-0.071 -1.122,-0.178 -1.741,-0.178l-32.931,0c-7.521,0 -11.64,5.235 -12.416,11.004c-0.036,0.097 -0.087,0.173 -0.122,0.273c-2.59,7.77 -5.088,15.56 -7.495,23.385c-56.985,-0.03 -145.136,-0.498 -201.997,-4.372c-1.544,-8.983 -4.768,-17.56 -9.404,-25.578c-2.917,-5.037 -7.526,-6.692 -11.957,-6.17c-0.863,-0.162 -1.762,-0.269 -2.739,-0.269l-41.598,0c-7.597,0 -11.71,5.342 -12.429,11.177c-0.312,1.097 -0.541,2.254 -0.571,3.554c-0.149,6.48 -1.711,12.721 -3.607,18.875c-7.478,0.701 -14.988,0.945 -22.501,1.021c-1.711,-94.445 -3.303,-287.686 -3.359,-382.151c0,-2.61 -0.666,-4.788 -1.731,-6.583l0,-1.216l31.141,0c4.458,8.059 8.15,16.509 12.235,24.763c2.148,4.342 6.964,6.452 11.649,6.307c0.441,0.041 0.848,0.129 1.31,0.129l36.399,0c4.634,0 7.939,-2.019 10.014,-4.893c1.894,-1.647 3.377,-3.844 4.255,-6.38c2.239,-6.469 5.538,-12.568 9.478,-18.189l203.64,0c5.099,8.257 10.44,16.27 16.478,23.925c1.371,1.736 3.25,2.765 5.297,3.318c1.925,1.366 4.361,2.219 7.363,2.219l29.467,0c6.917,0 10.928,-4.436 12.142,-9.636c4.316,-7.015 8.968,-13.685 14.401,-19.827l17.691,0c0.801,96.481 -5.724,291.673 -3.728,388.165z" id="svg_16" fill="#ffffff"/>
     <path d="m1658.13831,2580.77075l-45.067,0c-9.567,0 -13.65,8.46 -12.304,15.729c-0.409,1.274 -0.696,2.644 -0.696,4.207l0,23.529c-3.488,7.695 0.234,18.933 11.268,18.933c15.049,-0.005 30.097,-0.01 45.067,-1.731c0.904,-0.104 1.79,-0.274 2.646,-0.5c6.177,-0.378 12.085,-4.512 12.085,-12.5l0,-29.467c0,-1.369 -0.224,-2.585 -0.546,-3.728c0.686,-6.953 -3.437,-14.472 -12.453,-14.472zm-13,35.63c-6.35,0.406 -12.703,0.602 -19.068,0.681l0,-10.311l19.068,0l0,9.63z" id="svg_17" fill="#ffffff"/>
     <path d="m1658.13831,2684.76875l-45.067,0c-9.567,0 -13.65,8.46 -12.304,15.729c-0.409,1.274 -0.696,2.643 -0.696,4.207l0,23.529c-3.488,7.692 0.234,18.931 11.268,18.931c15.049,-0.006 30.097,-0.011 45.067,-1.732c0.904,-0.102 1.79,-0.273 2.646,-0.497c6.177,-0.381 12.085,-4.515 12.085,-12.502l0,-29.465c0,-1.369 -0.224,-2.585 -0.546,-3.728c0.686,-6.954 -3.437,-14.472 -12.453,-14.472zm-13,35.629c-6.35,0.406 -12.703,0.6 -19.068,0.681l0,-10.311l19.068,0l0,9.63z" id="svg_18" fill="#ffffff"/>
     <path d="m1658.13831,2788.76275l-45.067,0c-9.567,0 -13.65,8.46 -12.304,15.731c-0.409,1.274 -0.696,2.641 -0.696,4.204l0,23.532c-3.488,7.692 0.234,18.93 11.268,18.93c15.049,-0.005 30.097,-0.01 45.067,-1.731c0.904,-0.102 1.79,-0.274 2.646,-0.497c6.177,-0.381 12.085,-4.515 12.085,-12.502l0,-29.468c0,-1.366 -0.224,-2.585 -0.546,-3.728c0.686,-6.95 -3.437,-14.471 -12.453,-14.471zm-13,35.632c-6.35,0.406 -12.703,0.6 -19.068,0.681l0,-10.313l19.068,0l0,9.632z" id="svg_19" fill="#ffffff"/>
     <path d="m1938.92931,2580.77075l-45.066,0c-9.567,0 -13.65,8.46 -12.305,15.729c-0.411,1.274 -0.695,2.644 -0.695,4.207l0,23.529c-3.488,7.695 0.233,18.933 11.268,18.933c15.047,-0.005 30.098,-0.01 45.067,-1.731c0.904,-0.104 1.787,-0.274 2.646,-0.5c6.175,-0.378 12.086,-4.512 12.086,-12.5l0,-29.467c0,-1.369 -0.224,-2.585 -0.549,-3.728c0.685,-6.953 -3.438,-14.472 -12.452,-14.472zm-12.999,35.63c-6.353,0.406 -12.705,0.602 -19.068,0.681l0,-10.311l19.068,0l0,9.63z" id="svg_20" fill="#ffffff"/>
     <path d="m1938.92931,2684.76875l-45.066,0c-9.567,0 -13.65,8.46 -12.305,15.729c-0.411,1.274 -0.695,2.643 -0.695,4.207l0,23.529c-3.488,7.692 0.233,18.931 11.268,18.931c15.047,-0.006 30.098,-0.011 45.067,-1.732c0.904,-0.102 1.787,-0.273 2.646,-0.497c6.175,-0.381 12.086,-4.515 12.086,-12.502l0,-29.465c0,-1.369 -0.224,-2.585 -0.549,-3.728c0.685,-6.954 -3.438,-14.472 -12.452,-14.472zm-12.999,35.629c-6.353,0.406 -12.705,0.6 -19.068,0.681l0,-10.311l19.068,0l0,9.63z" id="svg_21" fill="#ffffff"/>
     <path d="m1938.92931,2788.76275l-45.066,0c-9.567,0 -13.65,8.46 -12.305,15.731c-0.411,1.274 -0.695,2.641 -0.695,4.204l0,23.532c-3.488,7.692 0.233,18.93 11.268,18.93c15.047,-0.005 30.098,-0.01 45.067,-1.731c0.904,-0.102 1.787,-0.274 2.646,-0.497c6.175,-0.381 12.086,-4.515 12.086,-12.502l0,-29.468c0,-1.366 -0.224,-2.585 -0.549,-3.728c0.685,-6.95 -3.438,-14.471 -12.452,-14.471zm-12.999,35.632c-6.353,0.406 -12.705,0.6 -19.068,0.681l0,-10.313l19.068,0l0,9.632z" id="svg_22" fill="#ffffff"/>
     <path d="m1823.76131,2693.49975c-28.152,-25.423 -66.311,-44.843 -101.499,-58.531c-29.317,-11.387 -12.2,149.29 -11.258,159.863c0.025,0.314 0.119,0.578 0.167,0.873c-1.3,9.212 8.595,19.738 19.396,13.817c28.586,-15.676 56.749,-32.134 83.799,-50.349c22.145,-14.909 33.327,-28.056 26.091,-44.75c-2.752,-6.359 -8.185,-13.237 -16.696,-20.923zm-88.136,83.431c-2.387,-32.123 -3.712,-64.264 -3.821,-96.499c-0.005,-1.254 -0.193,-2.382 -0.467,-3.448c0.274,-1.076 0.467,-2.214 0.467,-3.483l0,-6.51c31.9,14.449 61.012,33.893 86.838,57.647c-26.689,19.012 -54.512,36.176 -83.017,52.293z" id="svg_23" fill="#ffffff"/>
    </g>
   </g>
   <g id="svg_24" transform="matrix(0.11044706410800487,0,0,0.11044706410800487,0,0) "/>
   <g id="svg_25" transform="matrix(0.11044706410800487,0,0,0.11044706410800487,0,0) "/>
   <g id="svg_26" transform="matrix(0.11044706410800487,0,0,0.11044706410800487,0,0) "/>
   <g id="svg_27" transform="matrix(0.11044706410800487,0,0,0.11044706410800487,0,0) "/>
   <g id="svg_28" transform="matrix(0.11044706410800487,0,0,0.11044706410800487,0,0) "/>
   <g id="svg_29" transform="matrix(0.11044706410800487,0,0,0.11044706410800487,0,0) "/>
   <g id="svg_30" transform="matrix(0.11044706410800487,0,0,0.11044706410800487,0,0) "/>
   <g id="svg_31" transform="matrix(0.11044706410800487,0,0,0.11044706410800487,0,0) "/>
   <g id="svg_32" transform="matrix(0.11044706410800487,0,0,0.11044706410800487,0,0) "/>
   <g id="svg_33" transform="matrix(0.11044706410800487,0,0,0.11044706410800487,0,0) "/>
   <g id="svg_34" transform="matrix(0.11044706410800487,0,0,0.11044706410800487,0,0) "/>
   <g id="svg_35" transform="matrix(0.11044706410800487,0,0,0.11044706410800487,0,0) "/>
   <g id="svg_36" transform="matrix(0.11044706410800487,0,0,0.11044706410800487,0,0) "/>
   <g id="svg_37" transform="matrix(0.11044706410800487,0,0,0.11044706410800487,0,0) "/>
   <g id="svg_38" transform="matrix(0.11044706410800487,0,0,0.11044706410800487,0,0) "/>
  </g>
  <g id="svg_63" transform="rotate(31.377405166625977 1228.10546875,332.16149902343767) " stroke="null" fill-opacity="0.36">
   <g id="svg_44" transform="matrix(0.17675183248054674,0,0,0.22441400505210088,-381.71335521036644,-344.2981400910576) " stroke="null">
    <g id="svg_45" stroke="null">
     <path d="m9301.98933,2981.614c-1.274,-2.417 -2.976,-3.999 -4.854,-4.971c-1.854,-1.508 -4.275,-2.501 -7.256,-2.625c-19.77,-0.843 -39.467,-0.015 -59.21,1.018c-15.711,0.823 -15.798,25.329 0,24.501c17.499,-0.914 34.967,-1.6 52.471,-1.175c11.745,22.32 23.491,44.643 35.241,66.961c-38.811,0.99 -77.586,2.351 -116.291,5.672c-2.006,0.172 -3.747,0.741 -5.25,1.579c-2.859,0.903 -5.438,2.874 -7.368,5.51c-6.383,8.733 -13.249,16.996 -20.946,24.562c-44.799,0.011 -89.581,0.203 -134.349,1.895c-6.545,-8.673 -12.261,-17.971 -17.501,-27.477c-2.564,-4.652 -6.657,-6.297 -10.677,-5.962c-0.627,-0.066 -1.251,-0.138 -1.945,-0.106c-33.984,1.543 -67.92,1.071 -101.879,-0.26c16.988,-20.972 34.251,-41.71 52.049,-62.009l37.58,0c15.798,0 15.798,-24.501 0,-24.501l-41.853,0c-3.067,0 -5.522,0.942 -7.399,2.428c-1.508,0.635 -2.976,1.666 -4.326,3.199c-23.702,26.956 -46.624,54.555 -68.903,82.687c-0.693,0.874 -1.213,1.777 -1.643,2.691c-1.15,1.809 -1.765,4.108 -1.437,6.993c4.321,38.104 9.694,76.002 17.788,113.503c1.587,7.348 7.759,9.673 13.444,8.475c1.069,0.295 2.199,0.508 3.474,0.513c138.532,0.65 276.95,-10.669 415.467,-4.077c4.342,0.208 7.449,-1.528 9.395,-4.123c0.137,-0.168 0.259,-0.366 0.386,-0.544c0.178,-0.264 0.36,-0.522 0.513,-0.808c0.625,-1.025 1.173,-2.158 1.519,-3.523c9.485,-37.374 17.087,-74.981 20.637,-113.401c0.903,-2.809 0.802,-6.028 -0.944,-9.349l-45.933,-87.276zm4.895,194.144c-133.693,-5.581 -267.305,4.818 -401.013,4.458c-5.776,-28.274 -10.108,-56.751 -13.586,-85.391c35.612,1.563 71.196,2.239 106.825,0.812c5.939,10.09 12.484,19.707 19.758,28.934c0.937,1.184 2.138,2.017 3.448,2.601c1.856,1.346 4.268,2.122 7.259,2.006c47.281,-1.899 94.582,-2.042 141.894,-2.047c1.036,0 1.996,-0.117 2.899,-0.31c2.641,-0.081 5.348,-1.026 7.806,-3.275c9.358,-8.566 17.361,-18.312 24.948,-28.422c38.633,-3.153 77.337,-4.468 116.066,-5.433c-3.386,29.072 -9.321,57.64 -16.304,86.067z" id="svg_46" fill="#ffffff" stroke="null"/>
     <path d="m9101.49533,3052.982c2.158,4.072 6.119,6.891 10.664,6.286c4.54,0.604 8.506,-2.214 10.664,-6.286c38.303,-29.381 63.592,-62.134 100.179,-94.804c10.125,-9.044 -1.219,-22.973 -12.061,-20.164c-1.609,-0.693 -3.514,-1.026 -5.789,-0.752c-12.238,1.478 -24.512,2.575 -36.77,3.775c2.026,-24.771 4.52,-80.118 7.16,-104.832c0.781,-7.264 -4.062,-11.093 -9.648,-11.613c-1.361,-0.467 -2.89,-0.727 -4.642,-0.64c-22.155,1.145 -34.169,0.99 -49.099,1.437c-14.929,-0.452 -26.938,-0.292 -49.097,-1.437c-1.757,-0.092 -3.28,0.172 -4.644,0.64c-5.583,0.521 -10.425,4.342 -9.646,11.613c2.648,24.714 5.139,80.062 7.16,104.832c-12.261,-1.201 -24.532,-2.298 -36.767,-3.775c-2.277,-0.274 -4.182,0.059 -5.794,0.752c-10.841,-2.809 -22.181,11.12 -12.058,20.164c36.594,32.67 61.885,65.413 100.188,94.804zm-32.311,-86.11c7.045,0.805 10.862,-3.707 11.552,-9.075c0.579,-1.487 0.843,-3.224 0.698,-5.22c-1.805,-24.347 -4.271,-79.133 -6.833,-103.51c1.932,1.701 4.585,2.722 8.054,2.45c13.025,-1.008 21.584,-1.435 29.503,-1.678c7.922,0.244 16.479,0.67 29.509,1.678c3.468,0.271 6.118,-0.754 8.053,-2.45c-2.564,24.377 -5.032,79.168 -6.834,103.51c-0.143,1.996 0.121,3.732 0.695,5.22c0.695,5.368 4.509,9.875 11.558,9.075c8.022,-0.917 16.066,-1.666 24.11,-2.422c-25.675,22.815 -41.33,45.291 -67.086,65.98c-25.752,-20.69 -41.411,-43.16 -67.087,-65.98c8.039,0.757 16.085,1.501 24.108,2.422z" id="svg_47" fill="#ffffff" stroke="null"/>
    </g>
   </g>
   <g id="svg_48" transform="matrix(0.17675183248054674,0,0,0.22441400505210088,-381.71335521036644,-344.2981400910576) " stroke="null"/>
   <g id="svg_49" transform="matrix(0.17675183248054674,0,0,0.22441400505210088,-381.71335521036644,-344.2981400910576) " stroke="null"/>
   <g id="svg_50" transform="matrix(0.17675183248054674,0,0,0.22441400505210088,-381.71335521036644,-344.2981400910576) " stroke="null"/>
   <g id="svg_51" transform="matrix(0.17675183248054674,0,0,0.22441400505210088,-381.71335521036644,-344.2981400910576) " stroke="null"/>
   <g id="svg_52" transform="matrix(0.17675183248054674,0,0,0.22441400505210088,-381.71335521036644,-344.2981400910576) " stroke="null"/>
   <g id="svg_53" transform="matrix(0.17675183248054674,0,0,0.22441400505210088,-381.71335521036644,-344.2981400910576) " stroke="null"/>
   <g id="svg_54" transform="matrix(0.17675183248054674,0,0,0.22441400505210088,-381.71335521036644,-344.2981400910576) " stroke="null"/>
   <g id="svg_55" transform="matrix(0.17675183248054674,0,0,0.22441400505210088,-381.71335521036644,-344.2981400910576) " stroke="null"/>
   <g id="svg_56" transform="matrix(0.17675183248054674,0,0,0.22441400505210088,-381.71335521036644,-344.2981400910576) " stroke="null"/>
   <g id="svg_57" transform="matrix(0.17675183248054674,0,0,0.22441400505210088,-381.71335521036644,-344.2981400910576) " stroke="null"/>
   <g id="svg_58" transform="matrix(0.17675183248054674,0,0,0.22441400505210088,-381.71335521036644,-344.2981400910576) " stroke="null"/>
   <g id="svg_59" transform="matrix(0.17675183248054674,0,0,0.22441400505210088,-381.71335521036644,-344.2981400910576) " stroke="null"/>
   <g id="svg_60" transform="matrix(0.17675183248054674,0,0,0.22441400505210088,-381.71335521036644,-344.2981400910576) " stroke="null"/>
   <g id="svg_61" transform="matrix(0.17675183248054674,0,0,0.22441400505210088,-381.71335521036644,-344.2981400910576) " stroke="null"/>
   <g id="svg_62" transform="matrix(0.17675183248054674,0,0,0.22441400505210088,-381.71335521036644,-344.2981400910576) " stroke="null"/>
  </g>
  <g id="svg_87" fill-opacity="0.36" transform="rotate(-2.8370959758758545 198.3886871337907,129.1516265869145) " stroke="null">
   <g id="svg_68" transform="matrix(0.10076723283158734,0,0,0.08313680361666584,-209.990209743136,14.284974662250846) " stroke="null">
    <g id="svg_69" stroke="null">
     <path d="m4197.20735,1334.14367c-1.106,-0.335 -2.274,-0.579 -3.574,-0.649c-4.692,-0.272 -9.385,-0.559 -14.076,-0.833c3.433,0.203 4.85,-61.347 4.494,-67.105c-1.3,-21.178 -5.505,-43.079 -15.057,-62.185c-18.91,-37.829 -58.381,-45.554 -96.537,-47.842c-41.124,-2.47 -83.441,3.004 -110.464,38.339c-28.206,36.876 -34.205,84.82 -31.247,130.037c-8.079,0.218 -16.151,0.396 -24.237,0.784c-8.792,0.422 -13.294,7.297 -13.551,14.155c-0.29,1.076 -0.493,2.214 -0.541,3.463c-3.146,81.009 -0.477,162.124 -5.281,243.083c-0.625,10.471 8.475,14.832 16.503,13.223c1.399,0.487 2.907,0.838 4.634,0.868c98.083,1.828 196.129,5.246 294.159,8.806c8.876,0.325 13.37,-6.23 13.573,-13.097c1.463,-2.097 2.347,-4.758 2.275,-8.038c-1.59,-79.896 -0.447,-159.85 -7.049,-239.556c-0.678,-8.504 -7.351,-12.965 -14.024,-13.453zm-235.148,-67.069c3.74,-17.646 10.781,-34.901 20.952,-49.836c16.846,-24.734 52.407,-35.302 84.059,-35.279c11.039,0.005 21.602,1.3 30.727,3.732c38.115,10.151 56.797,37.519 58.727,75.975c1.082,21.533 -0.462,45.156 -4.661,66.321c-0.213,1.039 -0.284,2.034 -0.295,2.999c-5.891,-0.358 -11.78,-0.706 -17.671,-1.066c4.469,-20.782 4.763,-41.67 -4.275,-61.888c-10.726,-23.991 -38.537,-34.444 -62.587,-37.963c-1.244,-0.183 -2.427,-0.188 -3.569,-0.094c-1.138,-0.264 -2.356,-0.432 -3.707,-0.406c-23.298,0.462 -46.286,6.683 -61.824,25.085c-16.042,19.004 -18.464,44.993 -15.953,68.854c-7.69,-0.071 -15.381,-0.104 -23.072,-0.061c-2.82,0.014 2.156,-51.687 3.149,-56.373zm143.46,61.181c-31.772,-1.825 -63.543,-3.425 -95.336,-4.237c-1.803,-16.047 -1.892,-32.484 6.2,-46.949c8.605,-15.381 27.271,-19.001 43.384,-19.319c0.589,-0.011 1.086,-0.13 1.64,-0.198c17.798,2.768 34.769,7.911 43.879,24.699c7.246,13.355 4.296,30.981 0.233,46.004zm-189.52,243.199c3.598,-72.96 1.861,-146.037 4.291,-219.036c88.07,-3.141 175.846,3.532 263.735,8.683c5.25,72.74 4.661,145.659 5.961,218.549c-91.311,-3.3 -182.626,-6.407 -273.987,-8.196z" id="svg_70" fill="#ffffff" stroke="null"/>
     <path d="m4052.70335,1394.19867c-19.39,0 -35.109,15.722 -35.109,35.109c0,15.717 10.326,29.016 24.564,33.494c-1.005,20.454 -1.145,40.924 -1.145,61.403c0,13.411 20.799,13.411 20.799,0c0,-20.449 0.137,-40.894 1.143,-61.316c14.391,-4.388 24.856,-17.758 24.856,-33.581c0.001,-19.388 -15.715,-35.109 -35.108,-35.109z" id="svg_71" fill="#ffffff" stroke="null"/>
    </g>
   </g>
   <g id="svg_72" transform="matrix(0.10076723283158734,0,0,0.08313680361666584,-209.990209743136,14.284974662250846) " stroke="null"/>
   <g id="svg_73" transform="matrix(0.10076723283158734,0,0,0.08313680361666584,-209.990209743136,14.284974662250846) " stroke="null"/>
   <g id="svg_74" transform="matrix(0.10076723283158734,0,0,0.08313680361666584,-209.990209743136,14.284974662250846) " stroke="null"/>
   <g id="svg_75" transform="matrix(0.10076723283158734,0,0,0.08313680361666584,-209.990209743136,14.284974662250846) " stroke="null"/>
   <g id="svg_76" transform="matrix(0.10076723283158734,0,0,0.08313680361666584,-209.990209743136,14.284974662250846) " stroke="null"/>
   <g id="svg_77" transform="matrix(0.10076723283158734,0,0,0.08313680361666584,-209.990209743136,14.284974662250846) " stroke="null"/>
   <g id="svg_78" transform="matrix(0.10076723283158734,0,0,0.08313680361666584,-209.990209743136,14.284974662250846) " stroke="null"/>
   <g id="svg_79" transform="matrix(0.10076723283158734,0,0,0.08313680361666584,-209.990209743136,14.284974662250846) " stroke="null"/>
   <g id="svg_80" transform="matrix(0.10076723283158734,0,0,0.08313680361666584,-209.990209743136,14.284974662250846) " stroke="null"/>
   <g id="svg_81" transform="matrix(0.10076723283158734,0,0,0.08313680361666584,-209.990209743136,14.284974662250846) " stroke="null"/>
   <g id="svg_82" transform="matrix(0.10076723283158734,0,0,0.08313680361666584,-209.990209743136,14.284974662250846) " stroke="null"/>
   <g id="svg_83" transform="matrix(0.10076723283158734,0,0,0.08313680361666584,-209.990209743136,14.284974662250846) " stroke="null"/>
   <g id="svg_84" transform="matrix(0.10076723283158734,0,0,0.08313680361666584,-209.990209743136,14.284974662250846) " stroke="null"/>
   <g id="svg_85" transform="matrix(0.10076723283158734,0,0,0.08313680361666584,-209.990209743136,14.284974662250846) " stroke="null"/>
   <g id="svg_86" transform="matrix(0.10076723283158734,0,0,0.08313680361666584,-209.990209743136,14.284974662250846) " stroke="null"/>
  </g>
  <g id="svg_112" fill-opacity="0.36" transform="rotate(-33.485191345214844 1400.285888671875,241.57135009765616) ">
   <g id="svg_92" transform="matrix(0.126931997500642,0,0,0.126931997500642,0,0) ">
    <g id="svg_93">
     <path d="m11156.24666,1826.19436c-22.911,0 -44.549,7.353 -62.834,21.305c-14.087,-59.06 -69.767,-101.496 -134.064,-101.496c-5.205,0 -10.479,0.287 -15.663,0.853c-36.813,4.014 -65.745,24.065 -81.466,56.444c-16.523,34.038 -14.866,75.2 4.098,108.6c-0.645,-0.01 -1.29,-0.021 -1.935,-0.021c-41.157,0 -72.47,27.37 -77.914,68.111c-2.564,19.169 2.173,35.784 14.086,49.398c19.951,22.795 54.807,30.92 80.775,30.92c5.974,0 11.819,-0.406 16.993,-1.158c0.493,0.062 0.988,0.122 1.528,0.122c87.669,0 187.04,0 284.999,-1.351c0.955,-0.01 1.925,-0.127 2.936,-0.36c1.381,0.192 2.823,0.208 4.392,-0.062c32.525,-5.651 58.479,-23.952 73.072,-51.546c16.453,-31.088 16.702,-70.767 0.676,-106.155c-19.941,-44.022 -64.023,-73.604 -109.679,-73.604zm-261.429,116.59c6.126,0.976 12.647,-2.955 15.023,-8.937c1.915,-4.81 0.69,-9.912 -3.26,-13.645c-27.423,-25.896 -36.681,-62.597 -24.164,-95.771c11.755,-31.156 39.715,-50.496 74.804,-51.732c61.682,-2.133 112.777,45.52 112.909,104.37c0.016,8.554 6.744,13.025 13.376,13.025c5.972,0 10.866,-3.306 12.654,-8.48c16.752,-18.715 37.882,-28.599 61.123,-28.599c36.312,0 70.854,24.758 85.939,61.606c11.294,27.553 10.71,56.27 -1.599,78.77c-11.01,20.129 -29.94,33.221 -54.776,37.872c-0.614,-0.081 -1.295,-0.152 -2.067,-0.138c-97.908,1.356 -197.269,1.356 -284.922,1.356c-0.947,0 -1.871,0.091 -2.818,0.284c-1.01,-0.071 -2.059,-0.041 -3.166,0.132c-5.165,0.828 -10.509,1.249 -15.896,1.249c-29.811,0 -64.719,-13.035 -64.983,-49.764c-0.084,-11.842 4.014,-22.282 11.859,-30.184c9.636,-9.699 24.356,-15.274 40.388,-15.274c6.033,0 11.923,0.797 17.529,2.387c0.973,0.273 1.976,0.426 3.047,0.477c2.704,1.326 5.715,1.748 9,0.996z" id="svg_94" fill="#ffffff"/>
     <path d="m10953.61766,1941.82536c15.153,-26.269 46.421,-38.766 65.798,-20.267c-1.856,-0.294 -3.717,-0.543 -5.568,-0.873c-0.069,-0.011 -0.14,-0.011 -0.214,-0.021c-1.487,-0.731 -3.219,-1.178 -5.25,-1.178c-14,0 -15.013,20.058 -3.1,23.049c0.729,0.355 1.498,0.624 2.331,0.767c8.312,1.473 16.707,2.442 25.021,3.91c8.879,1.574 17.212,1.076 21.219,-7.714c0.076,-0.157 0.167,-0.31 0.243,-0.477c3.834,-9.156 7.892,-18.21 11.726,-27.365c2.473,-5.911 -2.62,-12.898 -8.191,-14.427c-6.764,-1.861 -11.958,2.298 -14.426,8.19c-0.787,1.879 -1.604,3.742 -2.407,5.621c-28.787,-35.261 -82.136,-24.902 -107.43,18.946c-7.571,13.123 12.697,24.935 20.248,11.839z" id="svg_95" fill="#ffffff"/>
     <path d="m11044.54666,1967.87536c-15.15,26.269 -46.417,38.766 -65.797,20.267c1.856,0.294 3.717,0.543 5.568,0.873c0.074,0.01 0.142,0.01 0.213,0.021c1.488,0.731 3.219,1.178 5.253,1.178c13.998,0 15.018,-20.058 3.1,-23.049c-0.729,-0.355 -1.498,-0.625 -2.331,-0.767c-9.927,-1.757 -20.056,-2.569 -30.054,-3.839c-7.69,-0.976 -12.824,0.254 -16.193,7.642c-0.074,0.158 -0.165,0.311 -0.239,0.478c-3.832,9.156 -7.894,18.21 -11.725,27.365c-2.476,5.911 2.62,12.898 8.188,14.427c6.766,1.863 11.961,-2.301 14.429,-8.19c0.787,-1.879 1.607,-3.743 2.41,-5.622c28.785,35.262 82.136,24.902 107.429,-18.945c7.576,-13.129 -12.694,-24.935 -20.251,-11.839z" id="svg_96" fill="#ffffff"/>
    </g>
   </g>
   <g id="svg_97" transform="matrix(0.126931997500642,0,0,0.126931997500642,0,0) "/>
   <g id="svg_98" transform="matrix(0.126931997500642,0,0,0.126931997500642,0,0) "/>
   <g id="svg_99" transform="matrix(0.126931997500642,0,0,0.126931997500642,0,0) "/>
   <g id="svg_100" transform="matrix(0.126931997500642,0,0,0.126931997500642,0,0) "/>
   <g id="svg_101" transform="matrix(0.126931997500642,0,0,0.126931997500642,0,0) "/>
   <g id="svg_102" transform="matrix(0.126931997500642,0,0,0.126931997500642,0,0) "/>
   <g id="svg_103" transform="matrix(0.126931997500642,0,0,0.126931997500642,0,0) "/>
   <g id="svg_104" transform="matrix(0.126931997500642,0,0,0.126931997500642,0,0) "/>
   <g id="svg_105" transform="matrix(0.126931997500642,0,0,0.126931997500642,0,0) "/>
   <g id="svg_106" transform="matrix(0.126931997500642,0,0,0.126931997500642,0,0) "/>
   <g id="svg_107" transform="matrix(0.126931997500642,0,0,0.126931997500642,0,0) "/>
   <g id="svg_108" transform="matrix(0.126931997500642,0,0,0.126931997500642,0,0) "/>
   <g id="svg_109" transform="matrix(0.126931997500642,0,0,0.126931997500642,0,0) "/>
   <g id="svg_110" transform="matrix(0.126931997500642,0,0,0.126931997500642,0,0) "/>
   <g id="svg_111" transform="matrix(0.126931997500642,0,0,0.126931997500642,0,0) "/>
  </g>
  <g id="svg_115" fill-opacity="0.36" transform="rotate(-158.76116943359375 332.0000000000001,129.00001525878906) " stroke="null">
   <g id="svg_9" transform="matrix(0.13291774777994245,0,0,0.14801839249871457,177.5209484086372,26.123009940605243) " stroke="null">
    <g id="svg_10" stroke="null">
     <path d="m1377.42965,868.92918c-18.702,-121.947 -35.637,-244.154 -46.377,-367.089c0.746,-2.742 0.351,-5.377 -0.854,-7.68c-1.803,-9.521 -11.842,-10.92 -19.042,-6.657c-1.97,0.863 -3.844,2.178 -5.443,4.171c-109.09,135.731 -239.203,252.205 -355.181,381.739c-4.591,5.128 -4.504,11.399 -2.034,16.32c-0.581,6.972 3.385,14.005 12.388,13.827c135.574,-2.661 271.806,11.05 405.956,-14.949c7.744,-1.503 10.812,-7.684 10.319,-13.746c0.471,-1.788 0.598,-3.773 0.268,-5.936zm-392.606,7.084c105.673,-115.834 221.199,-222.479 321.906,-342.789c1.833,19.474 3.869,38.928 5.977,58.369c-5.215,0.079 -10.42,0.475 -15.574,1.562c-17.209,3.633 -11.385,30.315 5.865,26.669c4.291,-0.903 8.398,-1.076 12.715,-0.998c1.93,16.768 4.002,33.517 6.089,50.267c-4.672,1.076 -9.358,2.146 -14.035,3.222c-17.134,3.933 -11.34,30.615 5.859,26.67c3.89,-0.894 7.77,-1.782 11.654,-2.677c1.767,13.559 3.701,27.102 5.55,40.654c-5.18,0.971 -10.272,2.306 -15.31,4.104c-6.998,2.509 -12.152,8.297 -10.4,16.265c1.442,6.571 9.247,12.924 16.266,10.405c4.331,-1.549 8.708,-2.773 13.146,-3.707c2.072,14.751 4.316,29.482 6.454,44.229c-5.24,0.909 -10.415,2.144 -15.549,3.961c-7.008,2.479 -12.142,8.312 -10.399,16.265c1.441,6.587 9.236,12.888 16.265,10.405c4.397,-1.554 8.978,-2.828 13.604,-3.768c1.427,9.633 2.747,19.271 4.215,28.898c-120.455,21.215 -242.609,11.131 -364.298,11.994z" id="svg_11" fill="#ffffff" stroke="null"/>
     <path d="m1275.14965,640.99618c0.34,-1.99 0.091,-3.994 -0.727,-5.87c-1.233,-4.804 -5.331,-7.987 -10.42,-7.987c-2.229,0 -4.448,0.594 -6.449,1.721c-1.726,0.807 -3.209,1.973 -4.412,3.468c-32.479,40.413 -69.406,78.122 -105.109,114.587c-24.209,24.725 -49.249,50.298 -72.757,76.561c-3.161,3.534 -4.02,8.277 -2.364,12.67c0.076,2.909 1.127,5.631 2.979,7.637c2.059,2.24 4.997,3.469 8.543,3.469c0.005,0 0.005,0 0.01,0c19.786,-0.391 39.603,-0.081 59.415,0.229c13.238,0.208 26.477,0.416 39.699,0.416c0.005,0 0.011,0 0.011,0c31.057,0 67.836,-0.975 105.266,-8.231c5.729,-1.106 9.491,-5.794 9.415,-11.552c0.249,-1.366 0.27,-2.783 0.046,-4.2c-7.724,-50.349 -17.322,-116.571 -23.146,-182.918zm-2.103,176.96c-32.382,5.221 -64.765,5.921 -89.702,5.921c-13.14,0 -26.302,-0.213 -39.456,-0.427c-11.893,-0.192 -23.79,-0.386 -35.678,-0.421c18.748,-20.221 38.225,-40.146 57.132,-59.494c29.625,-30.306 60.164,-61.555 88.377,-94.387c4.348,43.227 10.415,89.904 19.327,148.808z" id="svg_12" fill="#ffffff" stroke="null"/>
    </g>
   </g>
   <g id="svg_13" transform="matrix(0.13291774777994245,0,0,0.14801839249871457,177.5209484086372,26.123009940605243) " stroke="null"/>
   <g id="svg_40" transform="matrix(0.13291774777994245,0,0,0.14801839249871457,177.5209484086372,26.123009940605243) " stroke="null"/>
   <g id="svg_41" transform="matrix(0.13291774777994245,0,0,0.14801839249871457,177.5209484086372,26.123009940605243) " stroke="null"/>
   <g id="svg_42" transform="matrix(0.13291774777994245,0,0,0.14801839249871457,177.5209484086372,26.123009940605243) " stroke="null"/>
   <g id="svg_43" transform="matrix(0.13291774777994245,0,0,0.14801839249871457,177.5209484086372,26.123009940605243) " stroke="null"/>
   <g id="svg_64" transform="matrix(0.13291774777994245,0,0,0.14801839249871457,177.5209484086372,26.123009940605243) " stroke="null"/>
   <g id="svg_65" transform="matrix(0.13291774777994245,0,0,0.14801839249871457,177.5209484086372,26.123009940605243) " stroke="null"/>
   <g id="svg_66" transform="matrix(0.13291774777994245,0,0,0.14801839249871457,177.5209484086372,26.123009940605243) " stroke="null"/>
   <g id="svg_67" transform="matrix(0.13291774777994245,0,0,0.14801839249871457,177.5209484086372,26.123009940605243) " stroke="null"/>
   <g id="svg_88" transform="matrix(0.13291774777994245,0,0,0.14801839249871457,177.5209484086372,26.123009940605243) " stroke="null"/>
   <g id="svg_89" transform="matrix(0.13291774777994245,0,0,0.14801839249871457,177.5209484086372,26.123009940605243) " stroke="null"/>
   <g id="svg_90" transform="matrix(0.13291774777994245,0,0,0.14801839249871457,177.5209484086372,26.123009940605243) " stroke="null"/>
   <g id="svg_91" transform="matrix(0.13291774777994245,0,0,0.14801839249871457,177.5209484086372,26.123009940605243) " stroke="null"/>
   <g id="svg_113" transform="matrix(0.13291774777994245,0,0,0.14801839249871457,177.5209484086372,26.123009940605243) " stroke="null"/>
   <g id="svg_114" transform="matrix(0.13291774777994245,0,0,0.14801839249871457,177.5209484086372,26.123009940605243) " stroke="null"/>
  </g>
  <g id="svg_141" fill-opacity="0.36" transform="rotate(11.087784767150879 1146.3416748046875,116.94936370849597) " stroke="null">
   <g id="svg_120" transform="matrix(0.1329368265002364,0,0,0.13237160267041703,242.1284718971947,18.65218816390461) " stroke="null">
    <g id="svg_121" stroke="null">
     <path d="m6966.69265,496.81876c-1.549,-4.773 -5.865,-7.63 -10.893,-7.312c-1.127,-0.185 -2.305,-0.229 -3.58,-0.03c-24.795,3.852 -48.809,13.353 -71.386,28.241c-43.31,-12.131 -89.581,-11.41 -135.564,2.074c-21.647,-16.641 -47.677,-26.37 -79.531,-29.729c-4.877,-0.513 -8.652,2.024 -9.998,6.414c-0.635,0.98 -1.087,2.021 -1.389,3.161c-7.368,28.719 -7.378,56.594 -0.041,82.87c-37.902,48.357 -45.176,98.098 -21.607,147.862c18.159,38.351 57.61,67.626 106.026,78.894c-4.009,5.52 -7.046,11.521 -9.069,17.905c-1.569,0.147 -3.131,0.224 -4.654,0.224c-19.723,0 -33.918,-12.35 -48.957,-25.421c-4.232,-3.687 -8.61,-7.49 -13.139,-11.029c-14.353,-11.197 -29.945,-16.641 -47.672,-16.641c-3.182,0 -6.49,0.178 -9.641,0.519c-0.67,0 -1.335,0.065 -1.737,0.162l-0.817,0.081c-0.421,0.036 -0.846,0.071 -1.295,0.127c-4.844,0.686 -7.99,4.174 -8.028,8.882c-0.036,4.966 3.562,10.674 9.402,11.582c24.123,7.465 34.573,26.451 45.638,46.551c4.26,7.743 8.673,15.757 13.962,23.236c12.027,17.006 29.714,25.629 52.549,25.629c5.626,0 11.705,-0.523 18.096,-1.555c1.076,14.98 -1.163,39.278 -23.585,52.766c-4.177,2.504 -5.964,6.957 -4.677,11.608c1.462,5.276 6.231,8.77 11.38,8.074c0.17,0.021 0.404,0.03 0.825,0.03c16.468,0 31.506,-4.58 44.044,-13.324c-3.22,6.804 -7.219,12.893 -12.096,18.438c-2.875,3.266 -3.537,7.551 -1.762,11.472c1.808,4.011 5.72,6.692 9.724,6.692c0.79,0 1.579,-0.102 1.938,-0.219c26.662,0 47.558,-13.624 59.445,-38.547c9.775,24.969 27.005,40.965 52.506,48.8c1.097,0.34 2.188,0.518 3.255,0.518c4.17,0 7.811,-2.742 9.268,-6.987c1.493,-4.342 0.33,-9.008 -2.89,-11.775c-4.072,-6.022 -7.251,-12.416 -9.617,-19.357c7.866,5.672 17.722,8.541 29.427,8.541c6.724,0 14.219,-0.954 22.282,-2.833c4.778,-1.117 7.739,-4.794 7.733,-9.608c-0.01,-4.895 -3.066,-9.227 -7.394,-10.648c-1.224,-1.305 -2.762,-2.254 -4.58,-2.818c-27.67,-8.708 -25.812,-39.521 -24.166,-66.709c0.284,-4.646 0.549,-9.109 0.65,-13.273c0.396,-16.352 -0.438,-37.161 -10.015,-55.594c60.505,-8.887 97.498,-35.892 116.266,-84.759c18.438,-47.984 6.611,-108.115 -29.396,-150.046c4.277,-24.708 2.514,-49.308 -5.24,-73.139zm17.94,205.429c-11.237,49.259 -50.333,77.284 -116.194,83.297c-4.031,0.365 -7.271,2.681 -8.932,6.347c-2.971,4.276 -2.707,9.486 0.68,13.36c15.442,17.661 14.488,44.32 13.568,70.111c-0.802,22.552 -1.63,45.738 8.684,62.942c-5.393,-4.905 -9.109,-12.66 -11.42,-23.613c-2.94,-13.929 -4.088,-28.522 -5.195,-42.645c-0.903,-11.512 -1.838,-23.42 -3.742,-34.992c-0.797,-4.84 -4.388,-7.968 -9.15,-7.968c-3.402,0 -6.764,1.564 -8.988,4.185c-2.082,2.458 -2.93,5.606 -2.396,8.871c1.701,10.359 2.366,21.327 3.072,32.931c0.386,6.394 0.776,12.848 1.36,19.24c-0.157,0.635 -0.264,1.25 -0.31,1.869c-1.503,18.88 -2.174,40.472 3.179,61.083c-19.951,-22.896 -20.302,-60.342 -20.611,-93.755c-0.076,-7.82 -0.137,-15.203 -0.447,-22.252c-0.305,-6.692 -5.732,-10.191 -10.942,-10.191c-2.98,0 -5.764,1.122 -7.647,3.093c-1.818,1.894 -2.712,4.438 -2.58,7.327c0.29,6.566 0.452,13.346 0.62,20.262c0.229,9.628 0.467,19.58 1.061,29.447c-0.573,1.365 -0.843,2.838 -0.797,4.382c0.69,24.481 -6.5,52.902 -28.059,63.724c14.856,-30.371 13.606,-65.395 12.4,-99.33c-0.154,-4.464 -0.317,-8.917 -0.437,-13.34c-0.188,-6.729 -5.573,-10.248 -10.806,-10.248c-2.973,0 -5.771,1.123 -7.678,3.078c-1.84,1.889 -2.767,4.417 -2.694,7.312c0.145,5.343 0.384,10.791 0.627,16.29c0.51,11.608 1.031,23.598 0.713,35.338c-0.417,0.746 -0.724,1.468 -0.952,2.244c-4.228,14.574 -12.865,25.975 -24.684,32.835c10.057,-19.475 9.575,-41.051 7.129,-56.229c-0.104,-5.373 -4.034,-10.933 -10.45,-10.933c-0.879,0 -1.785,0.111 -2.689,0.319c-8.267,2.006 -15.465,2.971 -21.995,2.971c-22.354,0 -36.384,-10.897 -51.775,-40.207c-3.021,-5.769 -6.078,-10.994 -9.204,-15.727c3.156,2.574 6.307,5.286 9.531,8.063c4.223,3.641 8.595,7.404 13.119,10.948c17.659,13.827 36.736,18.515 59.425,14.518c1.371,-0.243 2.615,-0.716 3.702,-1.396c2.998,-1.178 5.032,-3.687 5.74,-7.104c2.397,-11.553 8.277,-20.754 17.481,-27.365c4.009,-2.874 5.542,-7.627 4.009,-12.396c-1.673,-5.205 -6.525,-8.374 -11.273,-7.338c-41.989,-5.23 -77.805,-26.548 -100.876,-60.08c-27.825,-40.408 -22.755,-91.495 13.545,-136.661c1.201,-1.493 1.986,-3.204 2.298,-5.001c2.361,-2.564 3.09,-6.007 1.993,-9.595c-6.683,-21.833 -7.485,-44.089 -2.455,-67.966c25.692,3.915 47.172,13.289 63.881,27.875c4.154,3.618 10.273,3.448 14.391,-0.134c43.81,-12.741 86.702,-13.025 127.859,-0.828c2.944,1.222 6.174,0.823 9.038,-1.152c19.312,-13.287 39.142,-21.955 60.545,-26.459c5.032,19.51 5.621,38.303 1.798,57.376c-0.244,1.221 -0.285,2.471 -0.112,3.712c-0.305,2.943 0.69,5.81 2.798,8.112c30.031,32.589 41.421,76.849 31.244,121.443z" id="svg_122" fill="#ffffff" stroke="null"/>
     <path d="m6873.84165,622.74176c-4.24,0 -8.495,0.238 -12.634,0.713c-1.534,-0.239 -3.189,-0.099 -4.814,0.452c-8.917,3.032 -22.576,5.23 -40.618,6.521c-0.214,0.015 -0.412,0.045 -0.666,0.094c-0.218,-0.043 -0.437,-0.074 -0.675,-0.094c-18.035,-1.295 -31.694,-3.489 -40.616,-6.525c-1.623,-0.551 -3.283,-0.686 -4.812,-0.452c-4.139,-0.475 -8.386,-0.713 -12.634,-0.713c-28.833,0 -55.276,10.483 -70.729,28.048c-11.852,13.472 -16.815,30.732 -14.363,49.904c5.959,46.43 40.423,69.002 105.371,69.002c12.276,0 24.158,-0.711 35.177,-1.473c1.148,-0.087 2.245,-0.33 3.275,-0.742c1.031,0.406 2.128,0.655 3.28,0.742c11.01,0.762 22.887,1.473 35.171,1.473c64.932,0 99.406,-22.572 105.367,-69.002c2.458,-19.172 -2.508,-36.427 -14.365,-49.899c-15.446,-17.56 -41.882,-28.049 -70.715,-28.049zm62.708,82.83c-14.681,38.816 -47.073,44.052 -76.814,44.052c-11.035,0 -22.358,-0.828 -33.312,-1.635l-7.658,-0.554c-0.279,-0.021 -0.543,-0.03 -0.817,-0.03c-0.975,0 -1.93,0.137 -2.828,0.4c-1.153,-0.34 -2.392,-0.467 -3.641,-0.37l-7.663,0.554c-10.951,0.807 -22.282,1.635 -33.316,1.635c-29.747,0 -62.132,-5.235 -76.812,-44.052c-5.164,-13.66 -4.222,-25.74 2.798,-35.901c14.246,-20.632 48.992,-28.183 72.396,-25.395c0.147,0.015 0.297,0.025 0.551,0.025c13.266,4.28 31.803,5.994 45.026,6.931l0.776,-0.02l0.93,0.005c12.964,-0.927 31.742,-2.668 44.62,-6.911l0.563,-0.03c23.435,-2.788 58.148,4.763 72.402,25.395c7.019,10.16 7.963,22.241 2.799,35.901z" id="svg_123" fill="#ffffff" stroke="null"/>
     <path d="m6772.85065,679.41476c0.005,-0.625 0.066,-1.242 -0.048,-1.882c-2.511,-14.32 -23.262,-24.311 -32.837,-10.971c-6.738,9.384 -5.319,26.124 -2.049,36.47c2.965,9.372 11.481,16.526 21.82,14.343c14.767,-3.12 14.013,-24.803 13.342,-36.467c-0.025,-0.531 -0.114,-1.018 -0.228,-1.493zm-17.264,22.262c-0.125,-0.005 -0.259,0.005 -0.384,-0.005c0.145,-0.033 -0.675,-0.183 -1.249,-0.287c-1.787,-7.432 -3.796,-17.783 -1.043,-25.052c1.45,-3.859 4.626,7.013 4.659,7.434c0.502,5.845 -0.699,12.225 -1.983,17.91z" id="svg_124" fill="#ffffff" stroke="null"/>
     <path d="m6876.84765,679.41476c0.005,-0.625 0.066,-1.247 -0.046,-1.882c-1.975,-11.258 -11.836,-18.288 -23.119,-16.775c-0.188,0.025 -0.361,0.079 -0.544,0.109c-2.193,-0.149 -4.443,0.63 -6.267,2.174c-4.493,3.816 -7.57,9.933 -6.834,15.917c0.096,0.744 0.279,1.457 0.497,2.143c-0.649,9.209 0.574,18.304 3.036,27.23c0.26,0.947 0.666,1.722 1.133,2.412c0.97,1.925 2.768,3.438 4.967,4.339c5.418,2.219 11.466,2.988 17.143,1.3c0.757,-0.231 1.447,-0.589 2.082,-1.006c2.098,-0.695 3.895,-2.308 4.662,-5.091c2.641,-9.582 4.088,-19.426 3.529,-29.373c-0.036,-0.535 -0.122,-1.022 -0.239,-1.497zm-17.264,22.262c-0.122,-0.005 -0.26,0.005 -0.381,-0.005c0.142,-0.033 -0.676,-0.183 -1.265,-0.287c-5.378,-1.008 -2.082,-21.533 -0.808,-24.963c1.468,0.493 4.312,2.262 4.372,4.08c0.005,0.142 -0.025,0.261 -0.015,0.406c0.396,7.12 -0.355,13.937 -1.903,20.769z" id="svg_125" fill="#ffffff" stroke="null"/>
    </g>
   </g>
   <g id="svg_126" transform="matrix(0.1329368265002364,0,0,0.13237160267041703,242.1284718971947,18.65218816390461) " stroke="null"/>
   <g id="svg_127" transform="matrix(0.1329368265002364,0,0,0.13237160267041703,242.1284718971947,18.65218816390461) " stroke="null"/>
   <g id="svg_128" transform="matrix(0.1329368265002364,0,0,0.13237160267041703,242.1284718971947,18.65218816390461) " stroke="null"/>
   <g id="svg_129" transform="matrix(0.1329368265002364,0,0,0.13237160267041703,242.1284718971947,18.65218816390461) " stroke="null"/>
   <g id="svg_130" transform="matrix(0.1329368265002364,0,0,0.13237160267041703,242.1284718971947,18.65218816390461) " stroke="null"/>
   <g id="svg_131" transform="matrix(0.1329368265002364,0,0,0.13237160267041703,242.1284718971947,18.65218816390461) " stroke="null"/>
   <g id="svg_132" transform="matrix(0.1329368265002364,0,0,0.13237160267041703,242.1284718971947,18.65218816390461) " stroke="null"/>
   <g id="svg_133" transform="matrix(0.1329368265002364,0,0,0.13237160267041703,242.1284718971947,18.65218816390461) " stroke="null"/>
   <g id="svg_134" transform="matrix(0.1329368265002364,0,0,0.13237160267041703,242.1284718971947,18.65218816390461) " stroke="null"/>
   <g id="svg_135" transform="matrix(0.1329368265002364,0,0,0.13237160267041703,242.1284718971947,18.65218816390461) " stroke="null"/>
   <g id="svg_136" transform="matrix(0.1329368265002364,0,0,0.13237160267041703,242.1284718971947,18.65218816390461) " stroke="null"/>
   <g id="svg_137" transform="matrix(0.1329368265002364,0,0,0.13237160267041703,242.1284718971947,18.65218816390461) " stroke="null"/>
   <g id="svg_138" transform="matrix(0.1329368265002364,0,0,0.13237160267041703,242.1284718971947,18.65218816390461) " stroke="null"/>
   <g id="svg_139" transform="matrix(0.1329368265002364,0,0,0.13237160267041703,242.1284718971947,18.65218816390461) " stroke="null"/>
   <g id="svg_140" transform="matrix(0.1329368265002364,0,0,0.13237160267041703,242.1284718971947,18.65218816390461) " stroke="null"/>
  </g>
 </g>
</svg>